<svg width="75" height="75" viewBox="0 0 75 75" fill="none" xmlns="http://www.w3.org/2000/svg">
<path d="M68.4082 8.93555H24.1699C20.5342 8.93555 17.5781 11.8931 17.5781 15.5273C17.5781 19.1631 20.5342 22.1191 24.1699 22.1191H68.4082C72.0425 22.1191 75 19.1631 75 15.5273C75 11.8931 72.0425 8.93555 68.4082 8.93555Z" fill="white"/>
<path d="M68.4082 30.9082H24.1699C20.5342 30.9082 17.5781 33.8657 17.5781 37.5C17.5781 41.1357 20.5342 44.0918 24.1699 44.0918H68.4082C72.0425 44.0918 75 41.1357 75 37.5C75 33.8657 72.0425 30.9082 68.4082 30.9082Z" fill="white"/>
<path d="M68.4082 52.8809H24.1699C20.5342 52.8809 17.5781 55.8384 17.5781 59.4727C17.5781 63.1084 20.5342 66.0645 24.1699 66.0645H68.4082C72.0425 66.0645 75 63.1084 75 59.4727C75 55.8384 72.0425 52.8809 68.4082 52.8809Z" fill="white"/>
<path d="M6.5918 8.93555C2.95605 8.93555 0 11.8931 0 15.5273C0 19.1631 2.95605 22.1191 6.5918 22.1191C10.2261 22.1191 13.1836 19.1631 13.1836 15.5273C13.1836 11.8931 10.2261 8.93555 6.5918 8.93555Z" fill="white"/>
<path d="M6.5918 30.9082C2.95605 30.9082 0 33.8657 0 37.5C0 41.1357 2.95605 44.0918 6.5918 44.0918C10.2261 44.0918 13.1836 41.1357 13.1836 37.5C13.1836 33.8657 10.2261 30.9082 6.5918 30.9082Z" fill="white"/>
<path d="M6.5918 52.8809C2.95605 52.8809 0 55.8384 0 59.4727C0 63.1084 2.95605 66.0645 6.5918 66.0645C10.2261 66.0645 13.1836 63.1084 13.1836 59.4727C13.1836 55.8384 10.2261 52.8809 6.5918 52.8809Z" fill="white"/>
</svg>
